<svg xmlns="http://www.w3.org/2000/svg" xmlns:xlink="http://www.w3.org/1999/xlink" width="110" height="100" viewBox="0 0 110 100">
  <defs>
    <path id="big-how-step2-a" d="M70.2630423,60.0886427 L74.5221572,58.0342925 C76.0113876,57.3159741 76.0862327,56.0204198 74.6779416,55.1460834 L57.6466997,44.5722512 C55.3102037,43.1216396 54.2328136,44.0131757 55.2594074,46.5754272 L62.7151553,65.184053 C63.328337,66.7144788 64.617223,66.8786321 65.5865377,65.5321675 L68.3492652,61.6944924 L75.1886206,69.8453188 C75.639445,70.3825903 76.4245821,70.4482352 76.9530571,70.004792 C77.4852165,69.5582573 77.5483941,68.7709869 77.1023978,68.2394691 L70.2630423,60.0886427 L70.2630423,60.0886427 Z"/>
  </defs>
  <g fill="none" fill-rule="evenodd" transform="rotate(-10 66.801 40.041)">
    <path stroke="#3A4461" stroke-linecap="round" stroke-linejoin="round" stroke-width="4" d="M18.7228916,62.2140468 L18.7228916,25.9933521 C18.7228916,22.1341124 21.8628806,19 25.7177486,19 L83.2822514,19 C87.1433253,19 90.2771084,22.1358137 90.2771084,25.9933521 L90.2771084,62.2140468 L101,69.6102732 L101,73.8301887 C101,76.6856284 98.688392,79 95.8324429,79 L13.1675571,79 C10.3141561,79 8,76.6823994 8,73.8301887 L8,69.6102732 L18.7228916,62.2140468 Z"/>
    <path fill="#3A4461" fill-rule="nonzero" d="M17.0858882,71 L91.5336681,71 C91.8098105,71 92.0336681,70.7761424 92.0336681,70.5 C92.0336681,70.2238576 91.8098105,70 91.5336681,70 L17.0858882,70 C16.8097458,70 16.5858882,70.2238576 16.5858882,70.5 C16.5858882,70.7761424 16.8097458,71 17.0858882,71 Z"/>
    <polygon fill="#3A4461" fill-rule="nonzero" points="18.744 63.33 90.585 63.434 90.586 62.434 18.746 62.33"/>
    <rect width="15.17" height="15.17" x="47.276" y="35.928" fill="#E32C1B" rx="7.585"/>
    <rect width="31.006" height="31.006" x="39.189" y="27.842" stroke="#E32C1B" stroke-linecap="round" stroke-linejoin="round" opacity=".2" rx="15.503"/>
    <g stroke-linecap="round" stroke-linejoin="round">
      <use fill="#FFF" xlink:href="#big-how-step2-a"/>
      <path stroke="#3A4461" stroke-width="2" d="M71.855528,60.4307693 L77.8684422,67.5966815 C78.6693135,68.5511227 78.5512541,69.9691527 77.5958447,70.7708365 C76.6420359,71.571177 75.2265044,71.4461908 74.4225762,70.4881064 L68.4096619,63.3221942 L66.398112,66.1164167 C64.9694699,68.1009282 62.6943101,67.8207801 61.7868903,65.5559724 L54.3311424,46.9473466 C52.9461108,43.4904787 55.0154326,41.7615783 58.1741604,43.7226717 L75.2054023,54.296504 C77.2830152,55.5863882 77.1569284,57.8736811 74.9566019,58.934991 L71.855528,60.4307693 Z"/>
    </g>
    <path fill="#E32C1B" fill-rule="nonzero" d="M12.5,10 C12.5,10.5522847 12.0522847,11 11.5,11 C10.9477153,11 10.5,10.5522847 10.5,10 L10.5,1 C10.5,0.44771525 10.9477153,-8.8817842e-14 11.5,-8.8817842e-14 C12.0522847,-8.8817842e-14 12.5,0.44771525 12.5,1 L12.5,10 Z M17.8001126,11.5998498 C17.4688248,12.0417398 16.8420402,12.1314005 16.4001502,11.8001126 C15.9582602,11.4688248 15.8685995,10.8420402 16.1998874,10.4001502 L20.9659318,4.04293783 C21.2972197,3.60104782 21.9240042,3.51138708 22.3658942,3.84267496 C22.8077842,4.17396285 22.897445,4.80074737 22.5661571,5.24263739 L17.8001126,11.5998498 Z M6.80201351,10.4026941 C7.13189645,10.8456339 7.04024572,11.4721306 6.59730589,11.8020135 C6.15436606,12.1318964 5.52786943,12.0402457 5.19798649,11.5973059 L0.55519888,5.36335034 C0.225315945,4.9204105 0.316966667,4.29391387 0.759906498,3.96403093 C1.20284633,3.634148 1.82934297,3.72579872 2.1592259,4.16873855 L6.80201351,10.4026941 Z" transform="rotate(-40 21.951 6.664)"/>
  </g>
</svg>
